<svg data-name="圖層 1" xmlns="http://www.w3.org/2000/svg" width="229" height="229" style=""><rect id="backgroundrect" width="100%" height="100%" x="0" y="0" fill="none" stroke="none" style="" class=""/><defs><style>.cls-1{fill:#fff;}.cls-2{opacity:0.8;}.cls-3{fill:#ddf2c9;}.cls-4{fill:#64b5f6;}.cls-5{fill:#90caf9;}</style></defs><title>p1_word</title><g class="currentLayer" style=""><title>Layer 1</title><g class="cls-2" id="svg_13"><circle class="cls-3" cx="114.59999084472656" cy="114.59999084472656" r="114.59999084472656" id="svg_14"/><path class="cls-4" d="M122.46002197265625,46.00999069213867 c11.09000015258789,19.549999237060547 24,48.72999954223633 27,84.55999755859375 a183.39999389648438,183.39999389648438 0 0 1 0.20999999344348907,27.649999618530273 a43.65999984741211,43.65999984741211 0 0 1 19.290000915527344,-20.459999084472656 a48.93000030517578,48.93000030517578 0 0 1 23.079999923706055,-5.5 a336.510009765625,336.510009765625 0 0 0 -21.850000381469727,-33.720001220703125 A349.07000732421875,349.07000732421875 0 0 0 122.46002197265625,46.00999069213867 z" id="svg_15"/><path class="cls-5" d="M71.52001953125,31.539993286132812 c13.279999732971191,24.489999771118164 28.559999465942383,61.11000061035156 31.399999618530273,106.38999938964844 a237.22000122070312,237.22000122070312 0 0 1 -0.38999998569488525,35 c1,-2.869999885559082 8.270000457763672,-22.610000610351562 29.219999313354492,-30.170000076293945 a49.06999969482422,49.06999969482422 0 0 1 30.65999984741211,-0.5699999928474426 A147.38999938964844,147.38999938964844 0 0 0 138.31999969482422,84.39998626708984 C115.260009765625,51.33999252319336 84.73001098632812,36.88999557495117 71.52001953125,31.539993286132812 z" id="svg_16"/><path class="cls-5" d="M186.26000213623047,170.3399887084961 l-131,20.889999389648438 l-32.209999084472656,-49.61000061035156 c20.170000076293945,2.940000057220459 65.75,5.110000133514404 90.33000183105469,5.71999979019165 a565.47998046875,565.47998046875 0 0 0 95.56999969482422,-5.71999979019165 C201.78997039794922,153.1299819946289 193.40001678466797,158.78998565673828 186.26000213623047,170.3399887084961 z" id="svg_17"/></g></g></svg>